<svg width="55" height="21" viewBox="0 0 55 21" fill="none" xmlns="http://www.w3.org/2000/svg">
<g clip-path="url(#clip0_122_2553)">
<path d="M12.5 10.9844H1.5M1.5 10.9844L6.08824 14.9844M1.5 10.9844L6.08824 6.98438" stroke="#0E71C3" stroke-width="1.5" stroke-linecap="round" stroke-linejoin="round"/>
</g>
<path d="M26.964 10.9584C27.3187 11.0144 27.6407 11.159 27.93 11.3924C28.2287 11.6257 28.462 11.915 28.63 12.2604C28.8073 12.6057 28.896 12.9744 28.896 13.3664C28.896 13.861 28.77 14.309 28.518 14.7104C28.266 15.1024 27.8973 15.415 27.412 15.6484C26.936 15.8724 26.3713 15.9844 25.718 15.9844H22.078V6.22637H25.578C26.2407 6.22637 26.8053 6.33837 27.272 6.56237C27.7387 6.77704 28.0887 7.07104 28.322 7.44437C28.5553 7.81771 28.672 8.23771 28.672 8.70437C28.672 9.28304 28.5133 9.76371 28.196 10.1464C27.888 10.5197 27.4773 10.7904 26.964 10.9584ZM23.352 10.4404H25.494C26.0913 10.4404 26.5533 10.3004 26.88 10.0204C27.2067 9.74037 27.37 9.35304 27.37 8.85837C27.37 8.36371 27.2067 7.97637 26.88 7.69637C26.5533 7.41637 26.082 7.27637 25.466 7.27637H23.352V10.4404ZM25.606 14.9344C26.2407 14.9344 26.7353 14.785 27.09 14.4864C27.4447 14.1877 27.622 13.7724 27.622 13.2404C27.622 12.699 27.4353 12.2744 27.062 11.9664C26.6887 11.649 26.1893 11.4904 25.564 11.4904H23.352V14.9344H25.606ZM30.1879 12.1204C30.1879 11.3364 30.3466 10.6504 30.6639 10.0624C30.9813 9.46504 31.4153 9.00304 31.9659 8.67637C32.5259 8.34971 33.1466 8.18637 33.8279 8.18637C34.4999 8.18637 35.0833 8.33104 35.5779 8.62037C36.0726 8.90971 36.4413 9.27371 36.6839 9.71237V8.31237H37.9719V15.9844H36.6839V14.5564C36.4319 15.0044 36.0539 15.3777 35.5499 15.6764C35.0553 15.9657 34.4766 16.1104 33.8139 16.1104C33.1326 16.1104 32.5166 15.9424 31.9659 15.6064C31.4153 15.2704 30.9813 14.799 30.6639 14.1924C30.3466 13.5857 30.1879 12.895 30.1879 12.1204ZM36.6839 12.1344C36.6839 11.5557 36.5673 11.0517 36.3339 10.6224C36.1006 10.193 35.7833 9.86637 35.3819 9.64237C34.9899 9.40904 34.5559 9.29237 34.0799 9.29237C33.6039 9.29237 33.1699 9.40437 32.7779 9.62837C32.3859 9.85237 32.0733 10.179 31.8399 10.6084C31.6066 11.0377 31.4899 11.5417 31.4899 12.1204C31.4899 12.7084 31.6066 13.2217 31.8399 13.6604C32.0733 14.0897 32.3859 14.421 32.7779 14.6544C33.1699 14.8784 33.6039 14.9904 34.0799 14.9904C34.5559 14.9904 34.9899 14.8784 35.3819 14.6544C35.7833 14.421 36.1006 14.0897 36.3339 13.6604C36.5673 13.2217 36.6839 12.713 36.6839 12.1344ZM39.6489 12.1344C39.6489 11.341 39.8075 10.6504 40.1249 10.0624C40.4422 9.46504 40.8809 9.00304 41.4409 8.67637C42.0102 8.34971 42.6589 8.18637 43.3869 8.18637C44.3295 8.18637 45.1042 8.41504 45.7109 8.87237C46.3269 9.32971 46.7329 9.96437 46.9289 10.7764H45.5569C45.4262 10.3097 45.1695 9.94104 44.7869 9.67037C44.4135 9.39971 43.9469 9.26437 43.3869 9.26437C42.6589 9.26437 42.0709 9.51637 41.6229 10.0204C41.1749 10.515 40.9509 11.2197 40.9509 12.1344C40.9509 13.0584 41.1749 13.7724 41.6229 14.2764C42.0709 14.7804 42.6589 15.0324 43.3869 15.0324C43.9469 15.0324 44.4135 14.9017 44.7869 14.6404C45.1602 14.379 45.4169 14.0057 45.5569 13.5204H46.9289C46.7235 14.3044 46.3129 14.9344 45.6969 15.4104C45.0809 15.877 44.3109 16.1104 43.3869 16.1104C42.6589 16.1104 42.0102 15.947 41.4409 15.6204C40.8809 15.2937 40.4422 14.8317 40.1249 14.2344C39.8075 13.637 39.6489 12.937 39.6489 12.1344ZM52.9128 15.9844L49.9028 12.5964V15.9844H48.6288V5.62437H49.9028V11.7144L52.8568 8.31237H54.6348L51.0228 12.1344L54.6488 15.9844H52.9128Z" fill="#0E71C3"/>
<defs>
<clipPath id="clip0_122_2553">
<rect width="14" height="10" fill="white" transform="translate(0 5.98438)"/>
</clipPath>
</defs>
</svg>
