<svg width="168" height="51" viewBox="0 0 168 51" fill="none" xmlns="http://www.w3.org/2000/svg">
<rect x="0.671875" y="0.984375" width="166.656" height="50" rx="5" fill="#304F8B"/>
<g clip-path="url(#clip0_25_1846)">
<g clip-path="url(#clip1_25_1846)">
<mask id="mask0_25_1846" style="mask-type:luminance" maskUnits="userSpaceOnUse" x="39" y="14" width="23" height="23">
<path d="M61.4062 14.9844H39.4062V36.9844H61.4062V14.9844Z" fill="white"/>
</mask>
<g mask="url(#mask0_25_1846)">
<path d="M55.5259 27.3587L56.1371 23.3774H52.3166V20.7937C52.3166 19.7048 52.8501 18.6426 54.5613 18.6426H56.298V15.2532C56.298 15.2532 54.7222 14.9844 53.2152 14.9844C50.0692 14.9844 48.0129 16.8915 48.0129 20.3434V23.3781H44.5156V27.3594H48.0129V36.9844H52.3166V27.3594L55.5259 27.3587Z" fill="white"/>
</g>
</g>
</g>
<path d="M71.2861 20.1689V29.5H69.6775V20.1689H71.2861ZM75.0929 24.2513V25.5266H70.8759V24.2513H75.0929ZM75.6248 20.1689V21.4507H70.8759V20.1689H75.6248ZM80.8191 28.1093V24.8024C80.8191 24.5546 80.7742 24.341 80.6845 24.1616C80.5948 23.9821 80.4581 23.8433 80.2744 23.745C80.0949 23.6467 79.8685 23.5976 79.595 23.5976C79.343 23.5976 79.1251 23.6403 78.9414 23.7258C78.7576 23.8112 78.6145 23.9266 78.512 24.0718C78.4094 24.2171 78.3582 24.3816 78.3582 24.5653H76.8201C76.8201 24.2919 76.8863 24.027 77.0187 23.7706C77.1512 23.5143 77.3435 23.2857 77.5955 23.0849C77.8476 22.8841 78.1488 22.726 78.4992 22.6107C78.8495 22.4953 79.2426 22.4376 79.6784 22.4376C80.1996 22.4376 80.661 22.5252 81.0626 22.7004C81.4685 22.8755 81.7868 23.1404 82.0175 23.4951C82.2525 23.8454 82.37 24.2855 82.37 24.8152V27.8978C82.37 28.214 82.3914 28.4981 82.4341 28.7502C82.4811 28.998 82.5473 29.2137 82.6328 29.3975V29.5H81.0498C80.9772 29.3334 80.9195 29.1219 80.8768 28.8655C80.8383 28.6049 80.8191 28.3528 80.8191 28.1093ZM81.0434 25.2831L81.0562 26.238H79.9475C79.6613 26.238 79.4092 26.2657 79.1913 26.3213C78.9734 26.3726 78.7918 26.4495 78.6466 26.552C78.5013 26.6545 78.3923 26.7784 78.3197 26.9237C78.2471 27.069 78.2108 27.2335 78.2108 27.4172C78.2108 27.6009 78.2535 27.7697 78.3389 27.9235C78.4244 28.073 78.5483 28.1905 78.7106 28.2759C78.8773 28.3614 79.0781 28.4041 79.3131 28.4041C79.6292 28.4041 79.9048 28.34 80.1398 28.2119C80.379 28.0794 80.567 27.9192 80.7037 27.7312C80.8405 27.5389 80.9131 27.3574 80.9216 27.1865L81.4215 27.8722C81.3703 28.0474 81.2827 28.2354 81.1588 28.4362C81.0349 28.637 80.8725 28.8292 80.6717 29.0129C80.4752 29.1924 80.238 29.3398 79.9603 29.4551C79.6869 29.5705 79.3707 29.6282 79.0119 29.6282C78.559 29.6282 78.1552 29.5385 77.8006 29.359C77.446 29.1753 77.1683 28.9296 76.9675 28.622C76.7667 28.3101 76.6663 27.9576 76.6663 27.5646C76.6663 27.1971 76.7346 26.8724 76.8713 26.5905C77.0123 26.3042 77.2174 26.0649 77.4866 25.8727C77.76 25.6804 78.0933 25.5352 78.4863 25.4369C78.8794 25.3344 79.328 25.2831 79.8322 25.2831H81.0434ZM87.1926 28.3977C87.4447 28.3977 87.6711 28.3486 87.8719 28.2503C88.077 28.1478 88.2415 28.0068 88.3654 27.8273C88.4936 27.6479 88.5641 27.4407 88.5769 27.2057H90.0317C90.0231 27.6543 89.8907 28.0623 89.6343 28.4297C89.378 28.7972 89.0383 29.0898 88.6153 29.3077C88.1924 29.5214 87.7245 29.6282 87.2118 29.6282C86.6821 29.6282 86.2206 29.5385 85.8276 29.359C85.4345 29.1753 85.1077 28.9232 84.847 28.6028C84.5864 28.2823 84.3899 27.9128 84.2574 27.4941C84.1293 27.0754 84.0652 26.6268 84.0652 26.1483V25.924C84.0652 25.4454 84.1293 24.9968 84.2574 24.5781C84.3899 24.1552 84.5864 23.7834 84.847 23.463C85.1077 23.1426 85.4345 22.8926 85.8276 22.7132C86.2206 22.5295 86.6799 22.4376 87.2054 22.4376C87.7609 22.4376 88.2479 22.5487 88.6666 22.7709C89.0853 22.9888 89.4143 23.2943 89.6536 23.6873C89.8971 24.0761 90.0231 24.529 90.0317 25.046H88.5769C88.5641 24.7896 88.5 24.5589 88.3846 24.3538C88.2736 24.1445 88.1155 23.9778 87.9104 23.8539C87.7096 23.73 87.4682 23.6681 87.1862 23.6681C86.8743 23.6681 86.6158 23.7322 86.4108 23.8604C86.2057 23.9843 86.0455 24.1552 85.9301 24.373C85.8148 24.5867 85.7314 24.8281 85.6802 25.0972C85.6332 25.3621 85.6097 25.6377 85.6097 25.924V26.1483C85.6097 26.4345 85.6332 26.7122 85.6802 26.9814C85.7272 27.2505 85.8083 27.4919 85.9237 27.7056C86.0433 27.9149 86.2057 28.0837 86.4108 28.2119C86.6158 28.3358 86.8765 28.3977 87.1926 28.3977ZM94.6492 29.6282C94.1365 29.6282 93.6729 29.5449 93.2585 29.3782C92.8484 29.2073 92.498 28.9702 92.2075 28.6669C91.9212 28.3635 91.7012 28.0068 91.5474 27.5966C91.3936 27.1865 91.3167 26.7443 91.3167 26.27V26.0137C91.3167 25.4711 91.3957 24.9797 91.5538 24.5397C91.7119 24.0996 91.9319 23.7236 92.2139 23.4117C92.4959 23.0956 92.8291 22.8542 93.2137 22.6876C93.5982 22.5209 94.0147 22.4376 94.4634 22.4376C94.959 22.4376 95.3926 22.5209 95.7643 22.6876C96.136 22.8542 96.4436 23.0892 96.6872 23.3925C96.935 23.6916 97.1187 24.0483 97.2383 24.4628C97.3622 24.8772 97.4242 25.3344 97.4242 25.8342V26.4943H92.0665V25.3856H95.8989V25.2639C95.8904 24.9861 95.8348 24.7255 95.7323 24.482C95.634 24.2385 95.4823 24.0419 95.2773 23.8924C95.0722 23.7429 94.7987 23.6681 94.4569 23.6681C94.2006 23.6681 93.972 23.7236 93.7712 23.8347C93.5747 23.9415 93.4102 24.0975 93.2777 24.3026C93.1453 24.5076 93.0428 24.7554 92.9701 25.046C92.9018 25.3322 92.8676 25.6548 92.8676 26.0137V26.27C92.8676 26.5734 92.9082 26.8553 92.9894 27.116C93.0748 27.3723 93.1987 27.5966 93.3611 27.7889C93.5234 27.9811 93.7199 28.1328 93.9507 28.2439C94.1814 28.3507 94.4441 28.4041 94.7389 28.4041C95.1106 28.4041 95.4417 28.3293 95.7323 28.1798C96.0228 28.0303 96.2749 27.8188 96.4885 27.5453L97.3024 28.3336C97.1529 28.5515 96.9585 28.7609 96.7192 28.9617C96.48 29.1582 96.1873 29.3184 95.8412 29.4423C95.4994 29.5662 95.1021 29.6282 94.6492 29.6282ZM99.0104 19.6562H100.555V28.0196L100.407 29.5H99.0104V19.6562ZM105.079 25.9688V26.1034C105.079 26.6161 105.022 27.0882 104.906 27.5197C104.795 27.947 104.624 28.3187 104.394 28.6348C104.167 28.951 103.885 29.1967 103.548 29.3718C103.214 29.5427 102.828 29.6282 102.388 29.6282C101.956 29.6282 101.58 29.547 101.26 29.3846C100.939 29.2223 100.67 28.9916 100.452 28.6925C100.239 28.3934 100.066 28.0367 99.9332 27.6223C99.8008 27.2078 99.7068 26.7507 99.6513 26.2508V25.8214C99.7068 25.3173 99.8008 24.8601 99.9332 24.45C100.066 24.0355 100.239 23.6788 100.452 23.3797C100.67 23.0764 100.937 22.8435 101.253 22.6812C101.574 22.5188 101.948 22.4376 102.375 22.4376C102.819 22.4376 103.21 22.5231 103.548 22.694C103.89 22.8649 104.174 23.1084 104.4 23.4246C104.627 23.7365 104.795 24.1082 104.906 24.5397C105.022 24.9712 105.079 25.4476 105.079 25.9688ZM103.535 26.1034V25.9688C103.535 25.6569 103.509 25.3643 103.458 25.0908C103.407 24.8131 103.321 24.5696 103.202 24.3602C103.086 24.1509 102.928 23.9864 102.727 23.8668C102.531 23.7429 102.285 23.6809 101.99 23.6809C101.717 23.6809 101.482 23.7279 101.285 23.8219C101.089 23.9159 100.924 24.0441 100.792 24.2064C100.66 24.3688 100.555 24.5568 100.478 24.7704C100.405 24.984 100.356 25.2147 100.331 25.4625V26.6225C100.369 26.9429 100.45 27.2377 100.574 27.5069C100.702 27.7718 100.882 27.9854 101.112 28.1478C101.343 28.3058 101.64 28.3849 102.003 28.3849C102.29 28.3849 102.531 28.3272 102.727 28.2119C102.924 28.0965 103.08 27.9363 103.195 27.7312C103.315 27.5219 103.4 27.2783 103.452 27.0006C103.507 26.7229 103.535 26.4238 103.535 26.1034ZM106.467 26.1098V25.9624C106.467 25.4625 106.54 24.999 106.685 24.5717C106.83 24.1402 107.039 23.7664 107.313 23.4502C107.591 23.1298 107.928 22.882 108.325 22.7068C108.727 22.5273 109.18 22.4376 109.684 22.4376C110.193 22.4376 110.645 22.5273 111.043 22.7068C111.444 22.882 111.784 23.1298 112.062 23.4502C112.339 23.7664 112.551 24.1402 112.696 24.5717C112.841 24.999 112.914 25.4625 112.914 25.9624V26.1098C112.914 26.6097 112.841 27.0732 112.696 27.5005C112.551 27.9277 112.339 28.3016 112.062 28.622C111.784 28.9382 111.447 29.186 111.049 29.3654C110.652 29.5406 110.201 29.6282 109.697 29.6282C109.189 29.6282 108.734 29.5406 108.332 29.3654C107.935 29.186 107.597 28.9382 107.319 28.622C107.042 28.3016 106.83 27.9277 106.685 27.5005C106.54 27.0732 106.467 26.6097 106.467 26.1098ZM108.011 25.9624V26.1098C108.011 26.4217 108.044 26.7165 108.108 26.9942C108.172 27.2719 108.272 27.5154 108.409 27.7248C108.546 27.9341 108.721 28.0986 108.934 28.2183C109.148 28.3379 109.402 28.3977 109.697 28.3977C109.983 28.3977 110.231 28.3379 110.44 28.2183C110.654 28.0986 110.829 27.9341 110.966 27.7248C111.103 27.5154 111.203 27.2719 111.267 26.9942C111.335 26.7165 111.37 26.4217 111.37 26.1098V25.9624C111.37 25.6548 111.335 25.3643 111.267 25.0908C111.203 24.8131 111.1 24.5674 110.959 24.3538C110.823 24.1402 110.648 23.9736 110.434 23.8539C110.225 23.73 109.975 23.6681 109.684 23.6681C109.394 23.6681 109.142 23.73 108.928 23.8539C108.719 23.9736 108.546 24.1402 108.409 24.3538C108.272 24.5674 108.172 24.8131 108.108 25.0908C108.044 25.3643 108.011 25.6548 108.011 25.9624ZM114.289 26.1098V25.9624C114.289 25.4625 114.361 24.999 114.507 24.5717C114.652 24.1402 114.861 23.7664 115.135 23.4502C115.413 23.1298 115.75 22.882 116.147 22.7068C116.549 22.5273 117.002 22.4376 117.506 22.4376C118.014 22.4376 118.467 22.5273 118.865 22.7068C119.266 22.882 119.606 23.1298 119.884 23.4502C120.161 23.7664 120.373 24.1402 120.518 24.5717C120.663 24.999 120.736 25.4625 120.736 25.9624V26.1098C120.736 26.6097 120.663 27.0732 120.518 27.5005C120.373 27.9277 120.161 28.3016 119.884 28.622C119.606 28.9382 119.268 29.186 118.871 29.3654C118.474 29.5406 118.023 29.6282 117.519 29.6282C117.01 29.6282 116.555 29.5406 116.154 29.3654C115.756 29.186 115.419 28.9382 115.141 28.622C114.864 28.3016 114.652 27.9277 114.507 27.5005C114.361 27.0732 114.289 26.6097 114.289 26.1098ZM115.833 25.9624V26.1098C115.833 26.4217 115.865 26.7165 115.929 26.9942C115.994 27.2719 116.094 27.5154 116.231 27.7248C116.367 27.9341 116.543 28.0986 116.756 28.2183C116.97 28.3379 117.224 28.3977 117.519 28.3977C117.805 28.3977 118.053 28.3379 118.262 28.2183C118.476 28.0986 118.651 27.9341 118.788 27.7248C118.924 27.5154 119.025 27.2719 119.089 26.9942C119.157 26.7165 119.192 26.4217 119.192 26.1098V25.9624C119.192 25.6548 119.157 25.3643 119.089 25.0908C119.025 24.8131 118.922 24.5674 118.781 24.3538C118.645 24.1402 118.469 23.9736 118.256 23.8539C118.046 23.73 117.797 23.6681 117.506 23.6681C117.215 23.6681 116.963 23.73 116.75 23.8539C116.54 23.9736 116.367 24.1402 116.231 24.3538C116.094 24.5674 115.994 24.8131 115.929 25.0908C115.865 25.3643 115.833 25.6548 115.833 25.9624ZM123.963 19.6562V29.5H122.412V19.6562H123.963ZM128.269 22.5658L125.251 25.9111L123.598 27.603L123.194 26.2957L124.444 24.7512L126.405 22.5658H128.269ZM126.738 29.5L124.488 26.2444L125.462 25.1613L128.526 29.5H126.738Z" fill="white"/>
<defs>
<clipPath id="clip0_25_1846">
<rect width="22" height="22" fill="white" transform="translate(39.4062 14.9844)"/>
</clipPath>
<clipPath id="clip1_25_1846">
<rect width="22" height="22" fill="white" transform="translate(39.4062 14.9844)"/>
</clipPath>
</defs>
</svg>
