<svg width="167" height="51" viewBox="0 0 167 51" fill="none" xmlns="http://www.w3.org/2000/svg">
<rect x="0.1875" y="0.984375" width="166.656" height="50" rx="5" fill="white"/>
<g clip-path="url(#clip0_25_1837)">
<path d="M67.8368 24.0259H67.0312V23.9844H58.0312V27.9844H63.6828C62.8583 30.3129 60.6427 31.9844 58.0312 31.9844C54.7178 31.9844 52.0312 29.2979 52.0312 25.9844C52.0312 22.6709 54.7178 19.9844 58.0312 19.9844C59.5608 19.9844 60.9523 20.5614 62.0118 21.5039L64.8403 18.6754C63.0542 17.0109 60.6652 15.9844 58.0312 15.9844C52.5087 15.9844 48.0312 20.4619 48.0312 25.9844C48.0312 31.5069 52.5087 35.9844 58.0312 35.9844C63.5538 35.9844 68.0312 31.5069 68.0312 25.9844C68.0312 25.3139 67.9622 24.6594 67.8368 24.0259Z" fill="#FFC107"/>
<path d="M49.1836 21.3299L52.4691 23.7394C53.3581 21.5384 55.5111 19.9844 58.0306 19.9844C59.5601 19.9844 60.9516 20.5614 62.0111 21.5039L64.8396 18.6754C63.0536 17.0109 60.6646 15.9844 58.0306 15.9844C54.1896 15.9844 50.8586 18.1529 49.1836 21.3299Z" fill="#FF3D00"/>
<path d="M58.0314 35.9847C60.6144 35.9847 62.9614 34.9962 64.7359 33.3887L61.6409 30.7697C60.6031 31.5589 59.3351 31.9858 58.0314 31.9847C55.4304 31.9847 53.2219 30.3262 52.3899 28.0117L49.1289 30.5242C50.7839 33.7627 54.1449 35.9847 58.0314 35.9847Z" fill="#4CAF50"/>
<path d="M67.8368 24.0259H67.0312V23.9844H58.0312V27.9844H63.6828C63.2884 29.0926 62.578 30.061 61.6392 30.7699L61.6407 30.7689L64.7358 33.3879C64.5168 33.5869 68.0312 30.9844 68.0312 25.9844C68.0312 25.3139 67.9622 24.6594 67.8368 24.0259Z" fill="#1976D2"/>
</g>
<path d="M85.4491 24.7319V28.2952C85.3167 28.4703 85.1094 28.6626 84.8275 28.8719C84.5498 29.077 84.1802 29.2543 83.7188 29.4039C83.2573 29.5534 82.6827 29.6282 81.9948 29.6282C81.4095 29.6282 80.8733 29.5299 80.3862 29.3334C79.8992 29.1326 79.4783 28.8399 79.1237 28.4554C78.7734 28.0709 78.5021 27.603 78.3098 27.0519C78.1176 26.4965 78.0214 25.8641 78.0214 25.1549V24.5076C78.0214 23.8027 78.109 23.1746 78.2842 22.6235C78.4636 22.0681 78.72 21.5981 79.0532 21.2136C79.3865 20.829 79.7881 20.5385 80.2581 20.342C80.7323 20.1412 81.2685 20.0408 81.8666 20.0408C82.6314 20.0408 83.2637 20.1689 83.7636 20.4253C84.2678 20.6774 84.6566 21.0277 84.93 21.4763C85.2034 21.9249 85.3765 22.4376 85.4491 23.0144H83.8726C83.8213 22.6897 83.7209 22.3992 83.5714 22.1428C83.4261 21.8865 83.2167 21.6857 82.9433 21.5404C82.6741 21.3909 82.3238 21.3161 81.8923 21.3161C81.5206 21.3161 81.1937 21.3866 80.9118 21.5276C80.6298 21.6686 80.3948 21.8758 80.2068 22.1492C80.0231 22.4227 79.8842 22.7559 79.7902 23.149C79.6962 23.5421 79.6492 23.9907 79.6492 24.4948V25.1549C79.6492 25.6676 79.7026 26.1226 79.8095 26.52C79.9205 26.9173 80.0786 27.2527 80.2837 27.5261C80.4931 27.7996 80.7473 28.0068 81.0463 28.1478C81.3454 28.2845 81.6829 28.3528 82.0589 28.3528C82.4263 28.3528 82.7276 28.3229 82.9625 28.2631C83.1975 28.199 83.3834 28.1243 83.5201 28.0388C83.6611 27.9491 83.77 27.8636 83.8469 27.7825V25.9304H81.9051V24.7319H85.4491ZM87.1571 26.1098V25.9624C87.1571 25.4625 87.2297 24.999 87.375 24.5717C87.5203 24.1402 87.7296 23.7664 88.003 23.4502C88.2808 23.1298 88.6183 22.882 89.0156 22.7068C89.4172 22.5273 89.8701 22.4376 90.3743 22.4376C90.8827 22.4376 91.3356 22.5273 91.7329 22.7068C92.1345 22.882 92.4742 23.1298 92.7519 23.4502C93.0296 23.7664 93.2411 24.1402 93.3863 24.5717C93.5316 24.999 93.6042 25.4625 93.6042 25.9624V26.1098C93.6042 26.6097 93.5316 27.0732 93.3863 27.5005C93.2411 27.9277 93.0296 28.3016 92.7519 28.622C92.4742 28.9382 92.1367 29.186 91.7393 29.3654C91.342 29.5406 90.8912 29.6282 90.3871 29.6282C89.8787 29.6282 89.4236 29.5406 89.022 29.3654C88.6247 29.186 88.2872 28.9382 88.0095 28.622C87.7317 28.3016 87.5203 27.9277 87.375 27.5005C87.2297 27.0732 87.1571 26.6097 87.1571 26.1098ZM88.7016 25.9624V26.1098C88.7016 26.4217 88.7336 26.7165 88.7977 26.9942C88.8618 27.2719 88.9622 27.5154 89.0989 27.7248C89.2356 27.9341 89.4108 28.0986 89.6244 28.2183C89.8381 28.3379 90.0923 28.3977 90.3871 28.3977C90.6733 28.3977 90.9211 28.3379 91.1305 28.2183C91.3441 28.0986 91.5193 27.9341 91.656 27.7248C91.7927 27.5154 91.8931 27.2719 91.9572 26.9942C92.0256 26.7165 92.0597 26.4217 92.0597 26.1098V25.9624C92.0597 25.6548 92.0256 25.3643 91.9572 25.0908C91.8931 24.8131 91.7906 24.5674 91.6496 24.3538C91.5129 24.1402 91.3377 23.9736 91.1241 23.8539C90.9147 23.73 90.6648 23.6681 90.3743 23.6681C90.0837 23.6681 89.8317 23.73 89.618 23.8539C89.4087 23.9736 89.2356 24.1402 89.0989 24.3538C88.9622 24.5674 88.8618 24.8131 88.7977 25.0908C88.7336 25.3643 88.7016 25.6548 88.7016 25.9624ZM94.979 26.1098V25.9624C94.979 25.4625 95.0516 24.999 95.1969 24.5717C95.3421 24.1402 95.5515 23.7664 95.8249 23.4502C96.1026 23.1298 96.4402 22.882 96.8375 22.7068C97.2391 22.5273 97.692 22.4376 98.1961 22.4376C98.7046 22.4376 99.1574 22.5273 99.5548 22.7068C99.9564 22.882 100.296 23.1298 100.574 23.4502C100.851 23.7664 101.063 24.1402 101.208 24.5717C101.353 24.999 101.426 25.4625 101.426 25.9624V26.1098C101.426 26.6097 101.353 27.0732 101.208 27.5005C101.063 27.9277 100.851 28.3016 100.574 28.622C100.296 28.9382 99.9585 29.186 99.5612 29.3654C99.1639 29.5406 98.7131 29.6282 98.209 29.6282C97.7005 29.6282 97.2455 29.5406 96.8439 29.3654C96.4466 29.186 96.109 28.9382 95.8313 28.622C95.5536 28.3016 95.3421 27.9277 95.1969 27.5005C95.0516 27.0732 94.979 26.6097 94.979 26.1098ZM96.5235 25.9624V26.1098C96.5235 26.4217 96.5555 26.7165 96.6196 26.9942C96.6837 27.2719 96.7841 27.5154 96.9208 27.7248C97.0575 27.9341 97.2327 28.0986 97.4463 28.2183C97.6599 28.3379 97.9142 28.3977 98.209 28.3977C98.4952 28.3977 98.743 28.3379 98.9524 28.2183C99.166 28.0986 99.3412 27.9341 99.4779 27.7248C99.6146 27.5154 99.715 27.2719 99.7791 26.9942C99.8474 26.7165 99.8816 26.4217 99.8816 26.1098V25.9624C99.8816 25.6548 99.8474 25.3643 99.7791 25.0908C99.715 24.8131 99.6125 24.5674 99.4715 24.3538C99.3348 24.1402 99.1596 23.9736 98.946 23.8539C98.7366 23.73 98.4867 23.6681 98.1961 23.6681C97.9056 23.6681 97.6535 23.73 97.4399 23.8539C97.2306 23.9736 97.0575 24.1402 96.9208 24.3538C96.7841 24.5674 96.6837 24.8131 96.6196 25.0908C96.5555 25.3643 96.5235 25.6548 96.5235 25.9624ZM107.537 22.5658H108.94V29.3077C108.94 29.9315 108.808 30.4613 108.543 30.8971C108.278 31.3329 107.909 31.664 107.434 31.8904C106.96 32.1212 106.411 32.2365 105.787 32.2365C105.522 32.2365 105.228 32.1981 104.903 32.1212C104.582 32.0443 104.271 31.9203 103.967 31.7495C103.668 31.5828 103.418 31.3628 103.217 31.0894L103.942 30.1793C104.189 30.4741 104.463 30.6899 104.762 30.8266C105.061 30.9633 105.375 31.0317 105.704 31.0317C106.059 31.0317 106.36 30.9655 106.608 30.833C106.86 30.7048 107.054 30.5147 107.191 30.2626C107.328 30.0106 107.396 29.7029 107.396 29.3398V24.1359L107.537 22.5658ZM102.826 26.1098V25.9752C102.826 25.4497 102.891 24.9712 103.019 24.5397C103.147 24.1039 103.331 23.73 103.57 23.4182C103.809 23.102 104.1 22.8606 104.441 22.694C104.783 22.5231 105.17 22.4376 105.601 22.4376C106.05 22.4376 106.432 22.5188 106.749 22.6812C107.069 22.8435 107.336 23.0764 107.55 23.3797C107.763 23.6788 107.93 24.0377 108.05 24.4564C108.173 24.8708 108.265 25.3322 108.325 25.8406V26.27C108.27 26.7656 108.176 27.2185 108.043 27.6287C107.911 28.0388 107.736 28.3934 107.518 28.6925C107.3 28.9916 107.031 29.2223 106.71 29.3846C106.394 29.547 106.02 29.6282 105.589 29.6282C105.166 29.6282 104.783 29.5406 104.441 29.3654C104.104 29.1902 103.813 28.9446 103.57 28.6284C103.331 28.3123 103.147 27.9406 103.019 27.5133C102.891 27.0818 102.826 26.614 102.826 26.1098ZM104.371 25.9752V26.1098C104.371 26.426 104.401 26.7208 104.461 26.9942C104.525 27.2676 104.621 27.509 104.749 27.7184C104.882 27.9235 105.048 28.0858 105.249 28.2054C105.454 28.3208 105.695 28.3785 105.973 28.3785C106.336 28.3785 106.633 28.3016 106.864 28.1478C107.099 27.994 107.278 27.7867 107.402 27.5261C107.53 27.2612 107.62 26.9664 107.671 26.6417V25.4818C107.646 25.2297 107.592 24.9947 107.511 24.7768C107.434 24.5589 107.33 24.3688 107.197 24.2064C107.065 24.0398 106.898 23.9116 106.697 23.8219C106.497 23.7279 106.259 23.6809 105.986 23.6809C105.708 23.6809 105.467 23.7407 105.262 23.8604C105.057 23.98 104.888 24.1445 104.756 24.3538C104.627 24.5632 104.531 24.8067 104.467 25.0844C104.403 25.3621 104.371 25.6591 104.371 25.9752ZM112.571 19.6562V29.5H111.02V19.6562H112.571ZM117.695 29.6282C117.182 29.6282 116.719 29.5449 116.304 29.3782C115.894 29.2073 115.544 28.9702 115.253 28.6669C114.967 28.3635 114.747 28.0068 114.593 27.5966C114.439 27.1865 114.362 26.7443 114.362 26.27V26.0137C114.362 25.4711 114.441 24.9797 114.599 24.5397C114.757 24.0996 114.978 23.7236 115.259 23.4117C115.541 23.0956 115.875 22.8542 116.259 22.6876C116.644 22.5209 117.06 22.4376 117.509 22.4376C118.005 22.4376 118.438 22.5209 118.81 22.6876C119.182 22.8542 119.489 23.0892 119.733 23.3925C119.981 23.6916 120.164 24.0483 120.284 24.4628C120.408 24.8772 120.47 25.3344 120.47 25.8342V26.4943H115.112V25.3856H118.944V25.2639C118.936 24.9861 118.88 24.7255 118.778 24.482C118.68 24.2385 118.528 24.0419 118.323 23.8924C118.118 23.7429 117.844 23.6681 117.503 23.6681C117.246 23.6681 117.018 23.7236 116.817 23.8347C116.62 23.9415 116.456 24.0975 116.323 24.3026C116.191 24.5076 116.088 24.7554 116.016 25.046C115.947 25.3322 115.913 25.6548 115.913 26.0137V26.27C115.913 26.5734 115.954 26.8553 116.035 27.116C116.12 27.3723 116.244 27.5966 116.407 27.7889C116.569 27.9811 116.766 28.1328 116.996 28.2439C117.227 28.3507 117.49 28.4041 117.785 28.4041C118.156 28.4041 118.487 28.3293 118.778 28.1798C119.068 28.0303 119.32 27.8188 119.534 27.5453L120.348 28.3336C120.198 28.5515 120.004 28.7609 119.765 28.9617C119.526 29.1582 119.233 29.3184 118.887 29.4423C118.545 29.5662 118.148 29.6282 117.695 29.6282Z" fill="black" fill-opacity="0.87"/>
<defs>
<clipPath id="clip0_25_1837">
<rect width="24" height="24" fill="white" transform="translate(46.0312 13.9844)"/>
</clipPath>
</defs>
</svg>
