<svg width="80" height="34" viewBox="0 0 80 34" fill="none" xmlns="http://www.w3.org/2000/svg">
<path d="M4.6247 21.5812H11.7087V25H0.3127V3.5016H4.6247V21.5812ZM22.0262 25.2772C20.3836 25.2772 18.9052 24.9179 17.591 24.1992C16.2769 23.46 15.24 22.4231 14.4802 21.0884C13.741 19.7537 13.3714 18.2137 13.3714 16.4684C13.3714 14.7231 13.7513 13.1831 14.511 11.8484C15.2913 10.5137 16.3488 9.48707 17.6834 8.7684C19.0181 8.0292 20.5068 7.6596 22.1494 7.6596C23.7921 7.6596 25.2808 8.0292 26.6154 8.7684C27.9501 9.48707 28.9973 10.5137 29.757 11.8484C30.5373 13.1831 30.9274 14.7231 30.9274 16.4684C30.9274 18.2137 30.527 19.7537 29.7262 21.0884C28.946 22.4231 27.8782 23.46 26.523 24.1992C25.1884 24.9179 23.6894 25.2772 22.0262 25.2772ZM22.0262 21.5196C22.8065 21.5196 23.5354 21.3348 24.213 20.9652C24.9112 20.5751 25.4656 20.0001 25.8762 19.2404C26.2869 18.4807 26.4922 17.5567 26.4922 16.4684C26.4922 14.8463 26.061 13.604 25.1986 12.7416C24.3568 11.8587 23.3198 11.4172 22.0878 11.4172C20.8558 11.4172 19.8189 11.8587 18.977 12.7416C18.1557 13.604 17.745 14.8463 17.745 16.4684C17.745 18.0905 18.1454 19.3431 18.9462 20.226C19.7676 21.0884 20.7942 21.5196 22.0262 21.5196ZM40.774 7.6596C42.0471 7.6596 43.1662 7.91627 44.1312 8.4296C45.0963 8.9224 45.856 9.5692 46.4104 10.37V7.9368H50.7532V25.1232C50.7532 26.7043 50.435 28.1108 49.7984 29.3428C49.1619 30.5953 48.2071 31.5809 46.934 32.2996C45.661 33.0388 44.121 33.4084 42.314 33.4084C39.8911 33.4084 37.8994 32.8437 36.3388 31.7144C34.7988 30.5851 33.9262 29.0451 33.7208 27.0944H38.002C38.2279 27.8747 38.7104 28.4907 39.4496 28.9424C40.2094 29.4147 41.1231 29.6508 42.1908 29.6508C43.4434 29.6508 44.4598 29.2709 45.24 28.5112C46.0203 27.772 46.4104 26.6427 46.4104 25.1232V22.4744C45.856 23.2752 45.086 23.9425 44.1004 24.4764C43.1354 25.0103 42.0266 25.2772 40.774 25.2772C39.3367 25.2772 38.0226 24.9076 36.8316 24.1684C35.6407 23.4292 34.6962 22.3923 33.998 21.0576C33.3204 19.7024 32.9816 18.1521 32.9816 16.4068C32.9816 14.682 33.3204 13.1523 33.998 11.8176C34.6962 10.4829 35.6304 9.45627 36.8008 8.7376C37.9918 8.01893 39.3162 7.6596 40.774 7.6596ZM46.4104 16.4684C46.4104 15.4212 46.2051 14.528 45.7944 13.7888C45.3838 13.0291 44.8294 12.4541 44.1312 12.064C43.4331 11.6533 42.6836 11.448 41.8828 11.448C41.082 11.448 40.3428 11.6431 39.6652 12.0332C38.9876 12.4233 38.4332 12.9983 38.002 13.758C37.5914 14.4972 37.386 15.3801 37.386 16.4068C37.386 17.4335 37.5914 18.3369 38.002 19.1172C38.4332 19.8769 38.9876 20.4621 39.6652 20.8728C40.3634 21.2835 41.1026 21.4888 41.8828 21.4888C42.6836 21.4888 43.4331 21.2937 44.1312 20.9036C44.8294 20.4929 45.3838 19.918 45.7944 19.1788C46.2051 18.4191 46.4104 17.5156 46.4104 16.4684ZM57.1515 5.904C56.3917 5.904 55.7552 5.66787 55.2419 5.1956C54.7491 4.7028 54.5027 4.09707 54.5027 3.3784C54.5027 2.65973 54.7491 2.06427 55.2419 1.592C55.7552 1.0992 56.3917 0.852799 57.1515 0.852799C57.9112 0.852799 58.5375 1.0992 59.0303 1.592C59.5436 2.06427 59.8003 2.65973 59.8003 3.3784C59.8003 4.09707 59.5436 4.7028 59.0303 5.1956C58.5375 5.66787 57.9112 5.904 57.1515 5.904ZM59.2767 7.9368V25H54.9647V7.9368H59.2767ZM72.9925 7.6904C75.0253 7.6904 76.668 8.3372 77.9205 9.6308C79.1731 10.9039 79.7993 12.6903 79.7993 14.99V25H75.4873V15.5752C75.4873 14.22 75.1485 13.1831 74.4709 12.4644C73.7933 11.7252 72.8693 11.3556 71.6989 11.3556C70.508 11.3556 69.5635 11.7252 68.8653 12.4644C68.1877 13.1831 67.8489 14.22 67.8489 15.5752V25H63.5369V7.9368H67.8489V10.062C68.4239 9.3228 69.1528 8.74787 70.0357 8.3372C70.9392 7.906 71.9248 7.6904 72.9925 7.6904Z" fill="#23A455"/>
</svg>
