<svg width="167" height="51" viewBox="0 0 167 51" fill="none" xmlns="http://www.w3.org/2000/svg">
<rect x="0.15625" y="0.984375" width="166.656" height="50" rx="5" fill="#95BF46"/>
<g clip-path="url(#clip0_25_1856)">
<path d="M59.7205 18.3182C59.7205 18.3182 59.4941 18.3848 59.1092 18.5071C59.0413 18.3071 58.9507 18.0515 58.8149 17.8071C58.3847 16.996 57.7507 16.5738 56.9809 16.5627C56.9243 16.5627 56.879 16.5627 56.8224 16.5738C56.7998 16.5515 56.7771 16.5182 56.7545 16.496C56.4262 16.1404 55.996 15.9738 55.4866 15.9849C54.5017 16.0182 53.5167 16.7182 52.713 17.9626C52.1469 18.8404 51.7281 19.9403 51.6035 20.7848C50.4715 21.1292 49.679 21.3736 49.6564 21.3736C49.079 21.5514 49.0677 21.5736 48.9884 22.0958C48.9318 22.4958 47.4375 33.8733 47.4375 33.8733L59.8677 35.9844V18.2959C59.8111 18.2959 59.7545 18.3071 59.7205 18.3182ZM56.845 19.1959C56.1884 19.3959 55.4639 19.6181 54.7507 19.8292C54.9545 19.0626 55.3394 18.3071 55.8149 17.8071C55.996 17.6182 56.2337 17.4182 56.5281 17.296C56.7998 17.8626 56.8564 18.6515 56.845 19.1959ZM55.4979 16.6293C55.7243 16.6293 55.9281 16.6738 56.0979 16.7849C55.8262 16.9182 55.5771 17.1182 55.3281 17.3737C54.7054 18.0293 54.2186 19.0626 54.0262 20.0515C53.4262 20.2292 52.8488 20.407 52.3054 20.5737C52.6451 19.007 53.9809 16.6738 55.4979 16.6293ZM53.5733 25.5069C53.6413 26.5402 56.4262 26.7735 56.5847 29.2068C56.7092 31.1179 55.5545 32.4289 53.879 32.5289C51.8866 32.6512 50.7771 31.4956 50.7771 31.4956L51.196 29.729C51.196 29.729 52.3054 30.5512 53.1884 30.4957C53.7658 30.4623 53.9696 29.9957 53.9583 29.6735C53.8677 28.3179 51.6035 28.3957 51.4677 26.1735C51.3432 24.2958 52.5998 22.4069 55.362 22.2292C56.4375 22.1625 56.9809 22.4292 56.9809 22.4292L56.3469 24.7514C56.3469 24.7514 55.645 24.4403 54.8073 24.4847C53.5847 24.5625 53.562 25.318 53.5733 25.5069ZM57.5016 18.9959C57.4903 18.5071 57.4337 17.8182 57.196 17.2293C57.9432 17.3737 58.3167 18.1959 58.4752 18.6959C58.1922 18.7848 57.8639 18.8848 57.5016 18.9959ZM60.2752 35.94L62.8564 35.3122L65.4375 34.6844C65.4375 34.6844 63.2186 19.9515 63.2073 19.8515C63.196 19.7515 63.1054 19.6959 63.0262 19.6848C62.9469 19.6737 61.4979 19.6515 61.4979 19.6515C61.4979 19.6515 60.6149 18.807 60.2752 18.4848V35.94Z" fill="white"/>
</g>
<path d="M81.5646 27.0967C81.5646 26.9045 81.5347 26.7336 81.4749 26.584C81.4193 26.4345 81.3189 26.2978 81.1737 26.1739C81.0284 26.05 80.8233 25.9304 80.5584 25.815C80.2978 25.6954 79.9646 25.5736 79.5587 25.4497C79.1143 25.313 78.7042 25.1613 78.3282 24.9947C77.9565 24.8238 77.6318 24.6273 77.3541 24.4051C77.0764 24.1786 76.8606 23.9202 76.7068 23.6296C76.553 23.3348 76.4761 22.9952 76.4761 22.6107C76.4761 22.2304 76.5551 21.8843 76.7132 21.5724C76.8756 21.2606 77.1041 20.9914 77.3989 20.765C77.698 20.5342 78.0505 20.3569 78.4564 20.233C78.8623 20.1049 79.3109 20.0408 79.8022 20.0408C80.4943 20.0408 81.0904 20.1689 81.5902 20.4253C82.0944 20.6816 82.481 21.0256 82.7502 21.4571C83.0236 21.8886 83.1604 22.365 83.1604 22.8862H81.5646C81.5646 22.5786 81.4984 22.3073 81.3659 22.0723C81.2378 21.8331 81.0412 21.6451 80.7763 21.5084C80.5157 21.3716 80.1846 21.3033 79.783 21.3033C79.4027 21.3033 79.0866 21.361 78.8345 21.4763C78.5824 21.5917 78.3944 21.7476 78.2705 21.9442C78.1466 22.1407 78.0847 22.3629 78.0847 22.6107C78.0847 22.7858 78.1253 22.946 78.2064 23.0913C78.2876 23.2323 78.4115 23.3647 78.5781 23.4886C78.7448 23.6083 78.9541 23.7215 79.2062 23.8283C79.4583 23.9351 79.7552 24.0377 80.097 24.1359C80.614 24.2897 81.0647 24.4606 81.4492 24.6486C81.8338 24.8323 82.1542 25.0417 82.4105 25.2767C82.6669 25.5117 82.8592 25.7787 82.9873 26.0778C83.1155 26.3726 83.1796 26.7079 83.1796 27.0839C83.1796 27.477 83.1005 27.8316 82.9425 28.1478C82.7844 28.4597 82.5579 28.7267 82.2631 28.9489C81.9726 29.1667 81.6223 29.3355 81.2121 29.4551C80.8062 29.5705 80.3534 29.6282 79.8535 29.6282C79.4049 29.6282 78.9627 29.5684 78.5269 29.4487C78.0954 29.3291 77.7023 29.1475 77.3477 28.904C76.9931 28.6562 76.7111 28.3486 76.5017 27.9811C76.2924 27.6094 76.1877 27.1758 76.1877 26.6802H77.7963C77.7963 26.9835 77.8476 27.242 77.9501 27.4556C78.0569 27.6693 78.2043 27.8444 78.3923 27.9811C78.5803 28.1136 78.7982 28.2119 79.046 28.2759C79.2981 28.34 79.5672 28.3721 79.8535 28.3721C80.2295 28.3721 80.5435 28.3187 80.7956 28.2119C81.0519 28.105 81.2442 27.9555 81.3723 27.7632C81.5005 27.571 81.5646 27.3488 81.5646 27.0967ZM86.3488 19.6562V29.5H84.8107V19.6562H86.3488ZM86.0796 25.7766L85.5797 25.7701C85.584 25.2916 85.6502 24.8494 85.7784 24.4435C85.9108 24.0377 86.0945 23.6852 86.3295 23.3861C86.5688 23.0828 86.855 22.8499 87.1883 22.6876C87.5215 22.5209 87.8911 22.4376 88.297 22.4376C88.6388 22.4376 88.9464 22.4846 89.2199 22.5786C89.4976 22.6726 89.7368 22.8243 89.9376 23.0336C90.1384 23.2387 90.2901 23.5079 90.3926 23.8411C90.4995 24.1701 90.5529 24.5717 90.5529 25.046V29.5H89.002V25.0331C89.002 24.6999 88.9528 24.435 88.8546 24.2385C88.7606 24.0419 88.6217 23.9009 88.438 23.8155C88.2543 23.7258 88.03 23.6809 87.7651 23.6809C87.4874 23.6809 87.2417 23.7365 87.0281 23.8475C86.8187 23.9586 86.6436 24.1103 86.5026 24.3026C86.3616 24.4948 86.2548 24.717 86.1821 24.9691C86.1138 25.2211 86.0796 25.4903 86.0796 25.7766ZM92.1968 26.1098V25.9624C92.1968 25.4625 92.2694 24.999 92.4147 24.5717C92.5599 24.1402 92.7693 23.7664 93.0427 23.4502C93.3204 23.1298 93.6579 22.882 94.0553 22.7068C94.4569 22.5273 94.9098 22.4376 95.4139 22.4376C95.9223 22.4376 96.3752 22.5273 96.7726 22.7068C97.1742 22.882 97.5138 23.1298 97.7915 23.4502C98.0693 23.7664 98.2807 24.1402 98.426 24.5717C98.5713 24.999 98.6439 25.4625 98.6439 25.9624V26.1098C98.6439 26.6097 98.5713 27.0732 98.426 27.5005C98.2807 27.9277 98.0693 28.3016 97.7915 28.622C97.5138 28.9382 97.1763 29.186 96.779 29.3654C96.3816 29.5406 95.9309 29.6282 95.4267 29.6282C94.9183 29.6282 94.4633 29.5406 94.0617 29.3654C93.6644 29.186 93.3268 28.9382 93.0491 28.622C92.7714 28.3016 92.5599 27.9277 92.4147 27.5005C92.2694 27.0732 92.1968 26.6097 92.1968 26.1098ZM93.7413 25.9624V26.1098C93.7413 26.4217 93.7733 26.7165 93.8374 26.9942C93.9015 27.2719 94.0019 27.5154 94.1386 27.7248C94.2753 27.9341 94.4505 28.0986 94.6641 28.2183C94.8777 28.3379 95.1319 28.3977 95.4267 28.3977C95.713 28.3977 95.9608 28.3379 96.1701 28.2183C96.3838 28.0986 96.5589 27.9341 96.6957 27.7248C96.8324 27.5154 96.9328 27.2719 96.9969 26.9942C97.0652 26.7165 97.0994 26.4217 97.0994 26.1098V25.9624C97.0994 25.6548 97.0652 25.3643 96.9969 25.0908C96.9328 24.8131 96.8302 24.5674 96.6893 24.3538C96.5525 24.1402 96.3774 23.9736 96.1637 23.8539C95.9544 23.73 95.7045 23.6681 95.4139 23.6681C95.1234 23.6681 94.8713 23.73 94.6577 23.8539C94.4483 23.9736 94.2753 24.1402 94.1386 24.3538C94.0019 24.5674 93.9015 24.8131 93.8374 25.0908C93.7733 25.3643 93.7413 25.6548 93.7413 25.9624ZM101.864 23.8988V32.166H100.32V22.5658H101.743L101.864 23.8988ZM106.382 25.9688V26.1034C106.382 26.6075 106.323 27.0754 106.203 27.5069C106.088 27.9341 105.915 28.308 105.684 28.6284C105.457 28.9446 105.178 29.1902 104.844 29.3654C104.511 29.5406 104.127 29.6282 103.691 29.6282C103.259 29.6282 102.881 29.5491 102.556 29.3911C102.236 29.2287 101.965 29.0001 101.743 28.7053C101.52 28.4105 101.341 28.0645 101.204 27.6671C101.072 27.2655 100.978 26.8254 100.922 26.3469V25.8278C100.978 25.3194 101.072 24.858 101.204 24.4435C101.341 24.0291 101.52 23.6724 101.743 23.3733C101.965 23.0742 102.236 22.8435 102.556 22.6812C102.877 22.5188 103.251 22.4376 103.678 22.4376C104.114 22.4376 104.5 22.5231 104.838 22.694C105.176 22.8606 105.46 23.0999 105.69 23.4117C105.921 23.7194 106.094 24.0911 106.209 24.5269C106.325 24.9584 106.382 25.439 106.382 25.9688ZM104.838 26.1034V25.9688C104.838 25.6484 104.808 25.3514 104.748 25.078C104.688 24.8003 104.594 24.5568 104.466 24.3474C104.338 24.1381 104.174 23.9757 103.973 23.8604C103.776 23.7407 103.539 23.6809 103.261 23.6809C102.988 23.6809 102.753 23.7279 102.556 23.8219C102.36 23.9116 102.195 24.0377 102.063 24.2C101.931 24.3624 101.828 24.5525 101.755 24.7704C101.683 24.984 101.631 25.2169 101.602 25.4689V26.7122C101.653 27.0198 101.74 27.3018 101.864 27.5582C101.988 27.8145 102.163 28.0196 102.39 28.1734C102.621 28.3229 102.915 28.3977 103.274 28.3977C103.552 28.3977 103.789 28.3379 103.986 28.2183C104.182 28.0986 104.342 27.9341 104.466 27.7248C104.594 27.5112 104.688 27.2655 104.748 26.9878C104.808 26.7101 104.838 26.4153 104.838 26.1034ZM109.725 22.5658V29.5H108.174V22.5658H109.725ZM108.071 20.7457C108.071 20.5107 108.148 20.3163 108.302 20.1625C108.46 20.0045 108.678 19.9254 108.956 19.9254C109.229 19.9254 109.445 20.0045 109.603 20.1625C109.761 20.3163 109.84 20.5107 109.84 20.7457C109.84 20.9764 109.761 21.1687 109.603 21.3225C109.445 21.4763 109.229 21.5532 108.956 21.5532C108.678 21.5532 108.46 21.4763 108.302 21.3225C108.148 21.1687 108.071 20.9764 108.071 20.7457ZM113.881 29.5H112.336V21.8993C112.336 21.3823 112.432 20.9487 112.625 20.5983C112.821 20.2437 113.101 19.9767 113.464 19.7972C113.827 19.6135 114.257 19.5217 114.752 19.5217C114.906 19.5217 115.058 19.5323 115.207 19.5537C115.357 19.5708 115.502 19.5986 115.643 19.637L115.605 20.829C115.519 20.8077 115.425 20.7927 115.323 20.7842C115.224 20.7756 115.118 20.7714 115.002 20.7714C114.767 20.7714 114.564 20.8162 114.393 20.9059C114.227 20.9914 114.099 21.1174 114.009 21.2841C113.924 21.4507 113.881 21.6558 113.881 21.8993V29.5ZM115.31 22.5658V23.6937H111.272V22.5658H115.31ZM118.819 28.7438L120.703 22.5658H122.356L119.575 30.5574C119.511 30.7283 119.428 30.9142 119.325 31.115C119.223 31.3158 119.088 31.5059 118.921 31.6854C118.759 31.8691 118.556 32.0165 118.312 32.1276C118.069 32.2429 117.774 32.3006 117.428 32.3006C117.291 32.3006 117.159 32.2878 117.031 32.2621C116.907 32.2408 116.789 32.2173 116.678 32.1917L116.672 31.0125C116.715 31.0167 116.766 31.021 116.826 31.0253C116.89 31.0295 116.941 31.0317 116.979 31.0317C117.236 31.0317 117.449 30.9996 117.62 30.9355C117.791 30.8757 117.93 30.7775 118.037 30.6407C118.148 30.504 118.242 30.3203 118.319 30.0896L118.819 28.7438ZM117.755 22.5658L119.402 27.7568L119.678 29.3846L118.607 29.6602L116.089 22.5658H117.755Z" fill="white"/>
<defs>
<clipPath id="clip0_25_1856">
<rect width="24" height="24" fill="white" transform="translate(44.4375 13.9844)"/>
</clipPath>
</defs>
</svg>
