<svg width="290" height="34" viewBox="0 0 290 34" fill="none" xmlns="http://www.w3.org/2000/svg">
<path d="M8.548 25.2156C7.04907 25.2156 5.69387 24.9589 4.4824 24.4456C3.29147 23.9323 2.34693 23.1931 1.6488 22.228C0.950667 21.2629 0.591333 20.1233 0.5708 18.8092H5.1908C5.2524 19.6921 5.5604 20.3903 6.1148 20.9036C6.68973 21.4169 7.47 21.6736 8.4556 21.6736C9.46173 21.6736 10.2523 21.4375 10.8272 20.9652C11.4021 20.4724 11.6896 19.8359 11.6896 19.0556C11.6896 18.4191 11.4945 17.8955 11.1044 17.4848C10.7143 17.0741 10.2215 16.7559 9.626 16.53C9.05107 16.2836 8.25027 16.0167 7.2236 15.7292C5.82733 15.3185 4.68773 14.9181 3.8048 14.528C2.9424 14.1173 2.19293 13.5116 1.5564 12.7108C0.9404 11.8895 0.6324 10.8012 0.6324 9.446C0.6324 8.17293 0.950667 7.06413 1.5872 6.1196C2.22373 5.17507 3.11693 4.4564 4.2668 3.9636C5.41667 3.45027 6.7308 3.1936 8.2092 3.1936C10.4268 3.1936 12.2235 3.73773 13.5992 4.826C14.9955 5.89373 15.7655 7.39267 15.9092 9.3228H11.166C11.1249 8.5836 10.8067 7.97787 10.2112 7.5056C9.63627 7.0128 8.86627 6.7664 7.9012 6.7664C7.05933 6.7664 6.38173 6.982 5.8684 7.4132C5.3756 7.8444 5.1292 8.47067 5.1292 9.292C5.1292 9.86693 5.314 10.3495 5.6836 10.7396C6.07373 11.1092 6.546 11.4172 7.1004 11.6636C7.67533 11.8895 8.47613 12.1564 9.5028 12.4644C10.8991 12.8751 12.0387 13.2857 12.9216 13.6964C13.8045 14.1071 14.5643 14.7231 15.2008 15.5444C15.8373 16.3657 16.1556 17.4437 16.1556 18.7784C16.1556 19.9283 15.8579 20.996 15.2624 21.9816C14.6669 22.9672 13.7943 23.7577 12.6444 24.3532C11.4945 24.9281 10.1291 25.2156 8.548 25.2156ZM24.9143 11.4788V19.7332C24.9143 20.3081 25.0478 20.7291 25.3147 20.996C25.6022 21.2424 26.0745 21.3656 26.7315 21.3656H28.7335V25H26.0231C22.3887 25 20.5715 23.2341 20.5715 19.7024V11.4788H18.5387V7.9368H20.5715V3.7172H24.9143V7.9368H28.7335V11.4788H24.9143ZM30.7262 16.4068C30.7262 14.682 31.065 13.1523 31.7426 11.8176C32.4407 10.4829 33.375 9.45627 34.5454 8.7376C35.7363 8.01893 37.0607 7.6596 38.5186 7.6596C39.7916 7.6596 40.9004 7.91627 41.845 8.4296C42.81 8.94293 43.58 9.58973 44.155 10.37V7.9368H48.4978V25H44.155V22.5052C43.6006 23.306 42.8306 23.9733 41.845 24.5072C40.8799 25.0205 39.7608 25.2772 38.4878 25.2772C37.0504 25.2772 35.7363 24.9076 34.5454 24.1684C33.375 23.4292 32.4407 22.3923 31.7426 21.0576C31.065 19.7024 30.7262 18.1521 30.7262 16.4068ZM44.155 16.4684C44.155 15.4212 43.9496 14.528 43.539 13.7888C43.1283 13.0291 42.5739 12.4541 41.8758 12.064C41.1776 11.6533 40.4282 11.448 39.6274 11.448C38.8266 11.448 38.0874 11.6431 37.4098 12.0332C36.7322 12.4233 36.1778 12.9983 35.7466 13.758C35.3359 14.4972 35.1306 15.3801 35.1306 16.4068C35.1306 17.4335 35.3359 18.3369 35.7466 19.1172C36.1778 19.8769 36.7322 20.4621 37.4098 20.8728C38.1079 21.2835 38.8471 21.4888 39.6274 21.4888C40.4282 21.4888 41.1776 21.2937 41.8758 20.9036C42.5739 20.4929 43.1283 19.918 43.539 19.1788C43.9496 18.4191 44.155 17.5156 44.155 16.4684ZM57.0212 10.5856C57.5756 9.68213 58.2943 8.97373 59.1772 8.4604C60.0807 7.94707 61.1073 7.6904 62.2572 7.6904V12.218H61.1176C59.7624 12.218 58.7357 12.5363 58.0376 13.1728C57.36 13.8093 57.0212 14.9181 57.0212 16.4992V25H52.7092V7.9368H57.0212V10.5856ZM70.1819 11.4788V19.7332C70.1819 20.3081 70.3154 20.7291 70.5823 20.996C70.8698 21.2424 71.3421 21.3656 71.9991 21.3656H74.0011V25H71.2907C67.6563 25 65.8391 23.2341 65.8391 19.7024V11.4788H63.8063V7.9368H65.8391V3.7172H70.1819V7.9368H74.0011V11.4788H70.1819ZM100.766 7.9368L90.2012 33.0696H85.612L89.308 24.5688L82.4704 7.9368H87.306L91.7104 19.8564L96.1764 7.9368H100.766ZM110.667 25.2772C109.024 25.2772 107.546 24.9179 106.232 24.1992C104.918 23.46 103.881 22.4231 103.121 21.0884C102.382 19.7537 102.012 18.2137 102.012 16.4684C102.012 14.7231 102.392 13.1831 103.152 11.8484C103.932 10.5137 104.989 9.48707 106.324 8.7684C107.659 8.0292 109.147 7.6596 110.79 7.6596C112.433 7.6596 113.921 8.0292 115.256 8.7684C116.591 9.48707 117.638 10.5137 118.398 11.8484C119.178 13.1831 119.568 14.7231 119.568 16.4684C119.568 18.2137 119.168 19.7537 118.367 21.0884C117.587 22.4231 116.519 23.46 115.164 24.1992C113.829 24.9179 112.33 25.2772 110.667 25.2772ZM110.667 21.5196C111.447 21.5196 112.176 21.3348 112.854 20.9652C113.552 20.5751 114.106 20.0001 114.517 19.2404C114.928 18.4807 115.133 17.5567 115.133 16.4684C115.133 14.8463 114.702 13.604 113.839 12.7416C112.997 11.8587 111.96 11.4172 110.728 11.4172C109.496 11.4172 108.46 11.8587 107.618 12.7416C106.796 13.604 106.386 14.8463 106.386 16.4684C106.386 18.0905 106.786 19.3431 107.587 20.226C108.408 21.0884 109.435 21.5196 110.667 21.5196ZM138.839 7.9368V25H134.497V22.844C133.942 23.5832 133.213 24.1684 132.31 24.5996C131.427 25.0103 130.462 25.2156 129.415 25.2156C128.08 25.2156 126.899 24.9384 125.873 24.384C124.846 23.8091 124.035 22.9775 123.439 21.8892C122.865 20.7804 122.577 19.4663 122.577 17.9468V7.9368H126.889V17.3308C126.889 18.686 127.228 19.7332 127.905 20.4724C128.583 21.1911 129.507 21.5504 130.677 21.5504C131.868 21.5504 132.803 21.1911 133.48 20.4724C134.158 19.7332 134.497 18.686 134.497 17.3308V7.9368H138.839ZM147.406 10.5856C147.96 9.68213 148.679 8.97373 149.562 8.4604C150.465 7.94707 151.492 7.6904 152.642 7.6904V12.218H151.502C150.147 12.218 149.12 12.5363 148.422 13.1728C147.745 13.8093 147.406 14.9181 147.406 16.4992V25H143.094V7.9368H147.406V10.5856ZM170.709 11.4788H167.721V25H163.347V11.4788H161.407V7.9368H163.347V7.0744C163.347 4.98 163.943 3.44 165.134 2.4544C166.325 1.4688 168.121 1.0068 170.524 1.0684V4.7028C169.477 4.68227 168.748 4.8568 168.337 5.2264C167.926 5.596 167.721 6.26333 167.721 7.2284V7.9368H170.709V11.4788ZM177.815 10.5856C178.369 9.68213 179.088 8.97373 179.971 8.4604C180.874 7.94707 181.901 7.6904 183.051 7.6904V12.218H181.911C180.556 12.218 179.529 12.5363 178.831 13.1728C178.154 13.8093 177.815 14.9181 177.815 16.4992V25H173.503V7.9368H177.815V10.5856ZM201.817 16.0988C201.817 16.7148 201.776 17.2692 201.694 17.762H189.22C189.323 18.994 189.754 19.9591 190.514 20.6572C191.273 21.3553 192.208 21.7044 193.316 21.7044C194.918 21.7044 196.058 21.0165 196.735 19.6408H201.386C200.893 21.2835 199.949 22.6387 198.552 23.7064C197.156 24.7536 195.442 25.2772 193.409 25.2772C191.766 25.2772 190.288 24.9179 188.974 24.1992C187.68 23.46 186.664 22.4231 185.924 21.0884C185.206 19.7537 184.846 18.2137 184.846 16.4684C184.846 14.7025 185.206 13.1523 185.924 11.8176C186.643 10.4829 187.649 9.45627 188.943 8.7376C190.236 8.01893 191.725 7.6596 193.409 7.6596C195.031 7.6596 196.479 8.00867 197.752 8.7068C199.045 9.40493 200.041 10.4008 200.739 11.6944C201.458 12.9675 201.817 14.4356 201.817 16.0988ZM197.351 14.8668C197.331 13.758 196.93 12.8751 196.15 12.218C195.37 11.5404 194.415 11.2016 193.286 11.2016C192.218 11.2016 191.314 11.5301 190.575 12.1872C189.857 12.8237 189.415 13.7169 189.251 14.8668H197.351ZM220.827 16.0988C220.827 16.7148 220.786 17.2692 220.703 17.762H208.229C208.332 18.994 208.763 19.9591 209.523 20.6572C210.283 21.3553 211.217 21.7044 212.326 21.7044C213.927 21.7044 215.067 21.0165 215.745 19.6408H220.395C219.903 21.2835 218.958 22.6387 217.562 23.7064C216.166 24.7536 214.451 25.2772 212.418 25.2772C210.776 25.2772 209.297 24.9179 207.983 24.1992C206.689 23.46 205.673 22.4231 204.934 21.0884C204.215 19.7537 203.856 18.2137 203.856 16.4684C203.856 14.7025 204.215 13.1523 204.934 11.8176C205.653 10.4829 206.659 9.45627 207.952 8.7376C209.246 8.01893 210.735 7.6596 212.418 7.6596C214.04 7.6596 215.488 8.00867 216.761 8.7068C218.055 9.40493 219.051 10.4008 219.749 11.6944C220.467 12.9675 220.827 14.4356 220.827 16.0988ZM216.361 14.8668C216.34 13.758 215.94 12.8751 215.159 12.218C214.379 11.5404 213.424 11.2016 212.295 11.2016C211.227 11.2016 210.324 11.5301 209.585 12.1872C208.866 12.8237 208.425 13.7169 208.26 14.8668H216.361ZM236.333 11.4788V19.7332C236.333 20.3081 236.467 20.7291 236.734 20.996C237.021 21.2424 237.494 21.3656 238.151 21.3656H240.153V25H237.442C233.808 25 231.991 23.2341 231.991 19.7024V11.4788H229.958V7.9368H231.991V3.7172H236.333V7.9368H240.153V11.4788H236.333ZM247.566 10.5856C248.121 9.68213 248.839 8.97373 249.722 8.4604C250.626 7.94707 251.652 7.6904 252.802 7.6904V12.218H251.663C250.307 12.218 249.281 12.5363 248.583 13.1728C247.905 13.8093 247.566 14.9181 247.566 16.4992V25H243.254V7.9368H247.566V10.5856ZM257.893 5.904C257.134 5.904 256.497 5.66787 255.984 5.1956C255.491 4.7028 255.244 4.09707 255.244 3.3784C255.244 2.65973 255.491 2.06427 255.984 1.592C256.497 1.0992 257.134 0.852799 257.893 0.852799C258.653 0.852799 259.279 1.0992 259.772 1.592C260.285 2.06427 260.542 2.65973 260.542 3.3784C260.542 4.09707 260.285 4.7028 259.772 5.1956C259.279 5.66787 258.653 5.904 257.893 5.904ZM260.018 7.9368V25H255.706V7.9368H260.018ZM263.17 16.4068C263.17 14.682 263.509 13.1523 264.186 11.8176C264.884 10.4829 265.819 9.45627 266.989 8.7376C268.18 8.01893 269.504 7.6596 270.962 7.6596C272.235 7.6596 273.344 7.91627 274.289 8.4296C275.254 8.94293 276.024 9.58973 276.599 10.37V7.9368H280.942V25H276.599V22.5052C276.044 23.306 275.274 23.9733 274.289 24.5072C273.324 25.0205 272.205 25.2772 270.932 25.2772C269.494 25.2772 268.18 24.9076 266.989 24.1684C265.819 23.4292 264.884 22.3923 264.186 21.0576C263.509 19.7024 263.17 18.1521 263.17 16.4068ZM276.599 16.4684C276.599 15.4212 276.393 14.528 275.983 13.7888C275.572 13.0291 275.018 12.4541 274.32 12.064C273.621 11.6533 272.872 11.448 272.071 11.448C271.27 11.448 270.531 11.6431 269.854 12.0332C269.176 12.4233 268.622 12.9983 268.19 13.758C267.78 14.4972 267.574 15.3801 267.574 16.4068C267.574 17.4335 267.78 18.3369 268.19 19.1172C268.622 19.8769 269.176 20.4621 269.854 20.8728C270.552 21.2835 271.291 21.4888 272.071 21.4888C272.872 21.4888 273.621 21.2937 274.32 20.9036C275.018 20.4929 275.572 19.918 275.983 19.1788C276.393 18.4191 276.599 17.5156 276.599 16.4684ZM289.465 2.208V25H285.153V2.208H289.465Z" fill="#23A455"/>
</svg>
