<svg width="12" height="7" viewBox="0 0 12 7" fill="none" xmlns="http://www.w3.org/2000/svg">
<path fill-rule="evenodd" clip-rule="evenodd" d="M0.4403 0.815238C0.48094 0.774496 0.529218 0.74217 0.58237 0.720115C0.635522 0.698059 0.692503 0.686707 0.75005 0.686707C0.807596 0.686707 0.864577 0.698059 0.917729 0.720115C0.970881 0.74217 1.01916 0.774496 1.0598 0.815238L6.00005 5.75636L10.9403 0.815238C10.981 0.774561 11.0293 0.742295 11.0824 0.72028C11.1356 0.698266 11.1925 0.686936 11.25 0.686936C11.3076 0.686936 11.3645 0.698266 11.4177 0.72028C11.4708 0.742295 11.5191 0.774561 11.5598 0.815238C11.6005 0.855915 11.6327 0.904206 11.6548 0.957353C11.6768 1.0105 11.6881 1.06746 11.6881 1.12499C11.6881 1.18251 11.6768 1.23948 11.6548 1.29262C11.6327 1.34577 11.6005 1.39406 11.5598 1.43474L6.3098 6.68474C6.26916 6.72548 6.22088 6.75781 6.16773 6.77986C6.11458 6.80192 6.0576 6.81327 6.00005 6.81327C5.9425 6.81327 5.88552 6.80192 5.83237 6.77986C5.77922 6.75781 5.73094 6.72548 5.6903 6.68474L0.4403 1.43474C0.399557 1.3941 0.367232 1.34582 0.345176 1.29267C0.323121 1.23952 0.311768 1.18253 0.311768 1.12499C0.311768 1.06744 0.323121 1.01046 0.345176 0.957309C0.367232 0.904157 0.399557 0.855878 0.4403 0.815238Z" fill="black" fill-opacity="0.87"/>
</svg>
