<svg width="74" height="54" viewBox="0 0 74 54" fill="none" xmlns="http://www.w3.org/2000/svg">
<rect y="0.984375" width="73.4531" height="50" rx="5" fill="#F5F6FA"/>
<g clip-path="url(#clip0_122_2575)">
<g opacity="0.65">
<path d="M37.0376 30.8312C37.4876 30.7812 37.9376 30.7813 38.4376 30.7813C42.1376 30.7813 45.4376 31.6312 47.6876 32.9312" stroke="black" stroke-opacity="0.87" stroke-miterlimit="10" stroke-linecap="round"/>
<path d="M47.7375 17.5813C45.5375 18.9313 42.1875 19.7813 38.4375 19.7813C34.7375 19.7813 31.4375 18.9313 29.1875 17.6313" stroke="black" stroke-opacity="0.87" stroke-miterlimit="10"/>
<path d="M26.4375 25.2812H50.4375" stroke="black" stroke-opacity="0.87" stroke-miterlimit="10"/>
<path d="M38.4375 13.2812V37.2812" stroke="black" stroke-opacity="0.87" stroke-miterlimit="10"/>
<path d="M36.5875 37.1313C37.1875 37.2313 37.8375 37.2812 38.4375 37.2812C45.0875 37.2812 50.4375 31.9313 50.4375 25.2812C50.4375 18.6312 45.0875 13.2812 38.4375 13.2812C31.7875 13.2812 26.4375 18.6312 26.4375 25.2812C26.4375 26.2812 26.5875 27.2312 26.7875 28.1812" stroke="black" stroke-opacity="0.87" stroke-miterlimit="10" stroke-linecap="round"/>
<path d="M36.8375 36.8813C37.3375 37.1813 37.8875 37.2812 38.4375 37.2812C41.7375 37.2812 44.4375 31.9313 44.4375 25.2812C44.4375 18.6312 41.7375 13.2812 38.4375 13.2812C35.1375 13.2812 32.4375 18.6312 32.4375 25.2812C32.4375 25.9812 32.4875 26.6313 32.5375 27.2812C32.5375 27.3313 32.5375 27.3813 32.5375 27.3813" stroke="black" stroke-opacity="0.87" stroke-miterlimit="10" stroke-linecap="round"/>
</g>
<path opacity="0.8" d="M19.6376 21.7313C21.0876 20.2813 22.3376 19.3313 19.7876 16.1313C17.2376 12.9313 15.4876 15.3813 14.0876 16.8313C12.4376 18.4813 13.9876 24.5313 19.9876 30.5813C25.9876 36.6313 32.1376 38.1813 33.7376 36.5313C35.1376 35.1313 37.6376 33.3813 34.4376 30.7813C31.2376 28.1813 30.2876 29.4813 28.8376 30.9313C27.8376 31.9313 25.2376 29.8313 22.9876 27.5813C20.7376 25.3313 18.6376 22.7313 19.6376 21.7313Z" fill="black" fill-opacity="0.87"/>
</g>
<defs>
<clipPath id="clip0_122_2575">
<rect width="40" height="25" fill="white" transform="translate(12.1875 12.7812)"/>
</clipPath>
</defs>
</svg>
